<svg width="36" height="36" viewBox="0 0 36 36" fill="none" xmlns="http://www.w3.org/2000/svg">
<path d="M18.0069 13.0986C16.7368 13.0986 15.5473 13.5653 14.6467 14.4183C13.7504 15.2713 13.2534 16.3979 13.2534 17.6009C13.2534 18.8039 13.7504 19.9305 14.6467 20.7835C15.5473 21.6325 16.7368 22.1032 18.0069 22.1032C19.2771 22.1032 20.4665 21.6325 21.3671 20.7835C22.2634 19.9305 22.7604 18.8039 22.7604 17.6009C22.7604 16.3979 22.2634 15.2713 21.3671 14.4183C20.9272 13.9985 20.4037 13.6656 19.8268 13.4391C19.25 13.2125 18.6314 13.0968 18.0069 13.0986ZM35.5214 22.574L32.7432 20.3248C32.8749 19.5604 32.9429 18.7798 32.9429 18.0033C32.9429 17.2267 32.8749 16.4421 32.7432 15.6817L35.5214 13.4325C35.7313 13.2624 35.8815 13.0357 35.9521 12.7827C36.0226 12.5297 36.0102 12.2624 35.9165 12.0163L35.8783 11.9116C35.1137 9.88657 33.968 8.00945 32.4968 6.37125L32.4204 6.28676C32.2417 6.0878 32.0036 5.94478 31.7375 5.87655C31.4713 5.80832 31.1895 5.81807 30.9293 5.90452L27.48 7.06732C26.2056 6.07753 24.7867 5.29697 23.2489 4.75379L22.582 1.33782C22.5317 1.08049 22.3999 0.843743 22.2041 0.659045C22.0084 0.474346 21.7579 0.350436 21.486 0.303776L21.3713 0.283658C19.1624 -0.0945528 16.8345 -0.0945528 14.6255 0.283658L14.5108 0.303776C14.2389 0.350436 13.9885 0.474346 13.7927 0.659045C13.5969 0.843743 13.4651 1.08049 13.4148 1.33782L12.7436 4.76989C11.2204 5.31739 9.80144 6.09607 8.54236 7.07537L5.06749 5.90452C4.80737 5.81738 4.52541 5.80728 4.25907 5.87555C3.99274 5.94383 3.75465 6.08725 3.57644 6.28676L3.49998 6.37125C2.03141 8.0112 0.886059 9.88784 0.118566 11.9116L0.0803344 12.0163C-0.110826 12.5192 0.0463504 13.0825 0.475399 13.4325L3.28758 15.7058C3.15589 16.4623 3.09217 17.2348 3.09217 17.9992C3.09217 18.7718 3.15589 19.5443 3.28758 20.2926L0.483895 22.5659C0.274025 22.7361 0.123819 22.9628 0.0532489 23.2157C-0.0173209 23.4687 -0.00491052 23.7361 0.0888302 23.9822L0.127062 24.0868C0.895951 26.1107 2.03017 27.9816 3.50847 29.6272L3.58494 29.7117C3.76358 29.9107 4.00168 30.0537 4.26786 30.1219C4.53403 30.1902 4.81578 30.1804 5.07599 30.094L8.55085 28.9231C9.81676 29.9089 11.2271 30.6894 12.7521 31.2286L13.4233 34.6607C13.4736 34.918 13.6054 35.1547 13.8012 35.3394C13.997 35.5241 14.2474 35.648 14.5193 35.6947L14.634 35.7148C16.8647 36.0951 19.1491 36.0951 21.3798 35.7148L21.4945 35.6947C21.7664 35.648 22.0169 35.5241 22.2126 35.3394C22.4084 35.1547 22.5402 34.918 22.5905 34.6607L23.2574 31.2447C24.7952 30.6975 26.2141 29.9209 27.4885 28.9312L30.9378 30.094C31.198 30.1811 31.4799 30.1912 31.7462 30.1229C32.0126 30.0546 32.2507 29.9112 32.4289 29.7117L32.5053 29.6272C33.9837 27.9736 35.1179 26.1107 35.8868 24.0868L35.925 23.9822C36.1077 23.4833 35.9505 22.924 35.5214 22.574ZM18.0069 24.6743C13.8821 24.6743 10.5389 21.5078 10.5389 17.6009C10.5389 13.6941 13.8821 10.5276 18.0069 10.5276C22.1317 10.5276 25.4749 13.6941 25.4749 17.6009C25.4749 21.5078 22.1317 24.6743 18.0069 24.6743Z" fill="#532184"/>
</svg>
