<svg width="36" height="36" viewBox="0 0 36 36" fill="none" xmlns="http://www.w3.org/2000/svg">
<g clip-path="url(#clip0_14_44)">
<path fill-rule="evenodd" clip-rule="evenodd" d="M0 0H2.25V33.75H36V36H0V0ZM22.5 7.875C22.5 7.57663 22.6185 7.29048 22.8295 7.0795C23.0405 6.86853 23.3266 6.75 23.625 6.75H32.625C32.9234 6.75 33.2095 6.86853 33.4205 7.0795C33.6315 7.29048 33.75 7.57663 33.75 7.875V16.875C33.75 17.1734 33.6315 17.4595 33.4205 17.6705C33.2095 17.8815 32.9234 18 32.625 18C32.3266 18 32.0405 17.8815 31.8295 17.6705C31.6185 17.4595 31.5 17.1734 31.5 16.875V11.025L23.3708 20.9633C23.2712 21.0847 23.1474 21.184 23.0072 21.2547C22.867 21.3254 22.7135 21.366 22.5567 21.3739C22.3999 21.3817 22.2431 21.3566 22.0966 21.3003C21.95 21.2439 21.8169 21.1574 21.7058 21.0465L15.885 15.2257L7.659 26.5365C7.47905 26.7653 7.21741 26.9155 6.92906 26.9554C6.64072 26.9954 6.34811 26.922 6.11274 26.7507C5.87736 26.5794 5.71755 26.3236 5.66687 26.0369C5.6162 25.7502 5.67861 25.4551 5.841 25.2135L14.841 12.8385C14.9365 12.7069 15.0594 12.5976 15.2013 12.5181C15.3431 12.4386 15.5005 12.3907 15.6626 12.3779C15.8247 12.3651 15.9877 12.3875 16.1403 12.4437C16.2929 12.5 16.4315 12.5886 16.5465 12.7035L22.4167 18.576L30.2512 9H23.625C23.3266 9 23.0405 8.88147 22.8295 8.6705C22.6185 8.45952 22.5 8.17337 22.5 7.875Z" fill="#532184"/>
</g>
<defs>
<clipPath id="clip0_14_44">
<rect width="36" height="36" fill="white"/>
</clipPath>
</defs>
</svg>
