<svg width="36" height="36" viewBox="0 0 36 36" fill="none" xmlns="http://www.w3.org/2000/svg">
<g clip-path="url(#clip0_12_7)">
<path d="M33 19C32.8684 19.0008 32.7379 18.9755 32.6161 18.9258C32.4943 18.876 32.3834 18.8027 32.29 18.71L18 4.41001L3.71 18.71C3.5187 18.8738 3.27262 18.9594 3.02094 18.9497C2.76927 18.94 2.53053 18.8357 2.35243 18.6576C2.17434 18.4795 2.07001 18.2407 2.06029 17.9891C2.05056 17.7374 2.13617 17.4913 2.3 17.3L17.3 2.30001C17.4874 2.11376 17.7408 2.00922 18.005 2.00922C18.2692 2.00922 18.5226 2.11376 18.71 2.30001L33.71 17.3C33.8476 17.4404 33.9408 17.6182 33.9779 17.8113C34.015 18.0043 33.9944 18.204 33.9186 18.3854C33.8429 18.5668 33.7153 18.7218 33.5519 18.8312C33.3885 18.9405 33.1966 18.9992 33 19Z" fill="#532184"/>
<path d="M18 7.79001L6 19.83V32C6 32.5304 6.21071 33.0392 6.58579 33.4142C6.96086 33.7893 7.46957 34 8 34H15V24H21V34H28C28.5304 34 29.0391 33.7893 29.4142 33.4142C29.7893 33.0392 30 32.5304 30 32V19.76L18 7.79001Z" fill="#532184"/>
</g>
<defs>
<clipPath id="clip0_12_7">
<rect width="36" height="36" fill="white"/>
</clipPath>
</defs>
</svg>
