<svg width="202" height="205" viewBox="0 0 202 205" fill="none" xmlns="http://www.w3.org/2000/svg">
<ellipse cx="101" cy="102.5" rx="101" ry="102.5" fill="#0E0024"/>
<path d="M128 105L24 105" stroke="#532184" stroke-width="2"/>
<path d="M32.3828 90.6055C32.3828 90.2539 32.3281 89.9414 32.2188 89.668C32.1172 89.3945 31.9336 89.1445 31.668 88.918C31.4023 88.6914 31.0273 88.4727 30.543 88.2617C30.0664 88.043 29.457 87.8203 28.7148 87.5938C27.9023 87.3438 27.1523 87.0664 26.4648 86.7617C25.7852 86.4492 25.1914 86.0898 24.6836 85.6836C24.1758 85.2695 23.7812 84.7969 23.5 84.2656C23.2188 83.7266 23.0781 83.1055 23.0781 82.4023C23.0781 81.707 23.2227 81.0742 23.5117 80.5039C23.8086 79.9336 24.2266 79.4414 24.7656 79.0273C25.3125 78.6055 25.957 78.2812 26.6992 78.0547C27.4414 77.8203 28.2617 77.7031 29.1602 77.7031C30.4258 77.7031 31.5156 77.9375 32.4297 78.4062C33.3516 78.875 34.0586 79.5039 34.5508 80.293C35.0508 81.082 35.3008 81.9531 35.3008 82.9062H32.3828C32.3828 82.3438 32.2617 81.8477 32.0195 81.418C31.7852 80.9805 31.4258 80.6367 30.9414 80.3867C30.4648 80.1367 29.8594 80.0117 29.125 80.0117C28.4297 80.0117 27.8516 80.1172 27.3906 80.3281C26.9297 80.5391 26.5859 80.8242 26.3594 81.1836C26.1328 81.543 26.0195 81.9492 26.0195 82.4023C26.0195 82.7227 26.0938 83.0156 26.2422 83.2812C26.3906 83.5391 26.6172 83.7812 26.9219 84.0078C27.2266 84.2266 27.6094 84.4336 28.0703 84.6289C28.5312 84.8242 29.0742 85.0117 29.6992 85.1914C30.6445 85.4727 31.4688 85.7852 32.1719 86.1289C32.875 86.4648 33.4609 86.8477 33.9297 87.2773C34.3984 87.707 34.75 88.1953 34.9844 88.7422C35.2188 89.2812 35.3359 89.8945 35.3359 90.582C35.3359 91.3008 35.1914 91.9492 34.9023 92.5273C34.6133 93.0977 34.1992 93.5859 33.6602 93.9922C33.1289 94.3906 32.4883 94.6992 31.7383 94.918C30.9961 95.1289 30.168 95.2344 29.2539 95.2344C28.4336 95.2344 27.625 95.125 26.8281 94.9062C26.0391 94.6875 25.3203 94.3555 24.6719 93.9102C24.0234 93.457 23.5078 92.8945 23.125 92.2227C22.7422 91.543 22.5508 90.75 22.5508 89.8438H25.4922C25.4922 90.3984 25.5859 90.8711 25.7734 91.2617C25.9688 91.6523 26.2383 91.9727 26.582 92.2227C26.9258 92.4648 27.3242 92.6445 27.7773 92.7617C28.2383 92.8789 28.7305 92.9375 29.2539 92.9375C29.9414 92.9375 30.5156 92.8398 30.9766 92.6445C31.4453 92.4492 31.7969 92.1758 32.0312 91.8242C32.2656 91.4727 32.3828 91.0664 32.3828 90.6055ZM40.4805 84.8984V95H37.6562V82.3203H40.3164L40.4805 84.8984ZM40.0234 88.1914L39.0625 88.1797C39.0625 87.3047 39.1719 86.4961 39.3906 85.7539C39.6094 85.0117 39.9297 84.3672 40.3516 83.8203C40.7734 83.2656 41.2969 82.8398 41.9219 82.543C42.5547 82.2383 43.2852 82.0859 44.1133 82.0859C44.6914 82.0859 45.2188 82.1719 45.6953 82.3438C46.1797 82.5078 46.5977 82.7695 46.9492 83.1289C47.3086 83.4883 47.582 83.9492 47.7695 84.5117C47.9648 85.0742 48.0625 85.7539 48.0625 86.5508V95H45.2383V86.7969C45.2383 86.1797 45.1445 85.6953 44.957 85.3438C44.7773 84.9922 44.5156 84.7422 44.1719 84.5938C43.8359 84.4375 43.4336 84.3594 42.9648 84.3594C42.4336 84.3594 41.9805 84.4609 41.6055 84.6641C41.2383 84.8672 40.9375 85.1445 40.7031 85.4961C40.4688 85.8477 40.2969 86.2539 40.1875 86.7148C40.0781 87.1758 40.0234 87.668 40.0234 88.1914ZM47.8867 87.4414L46.5625 87.7344C46.5625 86.9688 46.668 86.2461 46.8789 85.5664C47.0977 84.8789 47.4141 84.2773 47.8281 83.7617C48.25 83.2383 48.7695 82.8281 49.3867 82.5312C50.0039 82.2344 50.7109 82.0859 51.5078 82.0859C52.1562 82.0859 52.7344 82.1758 53.2422 82.3555C53.7578 82.5273 54.1953 82.8008 54.5547 83.1758C54.9141 83.5508 55.1875 84.0391 55.375 84.6406C55.5625 85.2344 55.6562 85.9531 55.6562 86.7969V95H52.8203V86.7852C52.8203 86.1445 52.7266 85.6484 52.5391 85.2969C52.3594 84.9453 52.1016 84.7031 51.7656 84.5703C51.4297 84.4297 51.0273 84.3594 50.5586 84.3594C50.1211 84.3594 49.7344 84.4414 49.3984 84.6055C49.0703 84.7617 48.793 84.9844 48.5664 85.2734C48.3398 85.5547 48.168 85.8789 48.0508 86.2461C47.9414 86.6133 47.8867 87.0117 47.8867 87.4414ZM65.7109 92.457V86.4102C65.7109 85.957 65.6289 85.5664 65.4648 85.2383C65.3008 84.9102 65.0508 84.6562 64.7148 84.4766C64.3867 84.2969 63.9727 84.207 63.4727 84.207C63.0117 84.207 62.6133 84.2852 62.2773 84.4414C61.9414 84.5977 61.6797 84.8086 61.4922 85.0742C61.3047 85.3398 61.2109 85.6406 61.2109 85.9766H58.3984C58.3984 85.4766 58.5195 84.9922 58.7617 84.5234C59.0039 84.0547 59.3555 83.6367 59.8164 83.2695C60.2773 82.9023 60.8281 82.6133 61.4688 82.4023C62.1094 82.1914 62.8281 82.0859 63.625 82.0859C64.5781 82.0859 65.4219 82.2461 66.1562 82.5664C66.8984 82.8867 67.4805 83.3711 67.9023 84.0195C68.332 84.6602 68.5469 85.4648 68.5469 86.4336V92.0703C68.5469 92.6484 68.5859 93.168 68.6641 93.6289C68.75 94.082 68.8711 94.4766 69.0273 94.8125V95H66.1328C66 94.6953 65.8945 94.3086 65.8164 93.8398C65.7461 93.3633 65.7109 92.9023 65.7109 92.457ZM66.1211 87.2891L66.1445 89.0352H64.1172C63.5938 89.0352 63.1328 89.0859 62.7344 89.1875C62.3359 89.2812 62.0039 89.4219 61.7383 89.6094C61.4727 89.7969 61.2734 90.0234 61.1406 90.2891C61.0078 90.5547 60.9414 90.8555 60.9414 91.1914C60.9414 91.5273 61.0195 91.8359 61.1758 92.1172C61.332 92.3906 61.5586 92.6055 61.8555 92.7617C62.1602 92.918 62.5273 92.9961 62.957 92.9961C63.5352 92.9961 64.0391 92.8789 64.4688 92.6445C64.9062 92.4023 65.25 92.1094 65.5 91.7656C65.75 91.4141 65.8828 91.082 65.8984 90.7695L66.8125 92.0234C66.7188 92.3438 66.5586 92.6875 66.332 93.0547C66.1055 93.4219 65.8086 93.7734 65.4414 94.1094C65.082 94.4375 64.6484 94.707 64.1406 94.918C63.6406 95.1289 63.0625 95.2344 62.4062 95.2344C61.5781 95.2344 60.8398 95.0703 60.1914 94.7422C59.543 94.4062 59.0352 93.957 58.668 93.3945C58.3008 92.8242 58.1172 92.1797 58.1172 91.4609C58.1172 90.7891 58.2422 90.1953 58.4922 89.6797C58.75 89.1562 59.125 88.7188 59.6172 88.3672C60.1172 88.0156 60.7266 87.75 61.4453 87.5703C62.1641 87.3828 62.9844 87.2891 63.9062 87.2891H66.1211ZM74.3359 84.7344V95H71.5117V82.3203H74.207L74.3359 84.7344ZM78.2148 82.2383L78.1914 84.8633C78.0195 84.832 77.832 84.8086 77.6289 84.793C77.4336 84.7773 77.2383 84.7695 77.043 84.7695C76.5586 84.7695 76.1328 84.8398 75.7656 84.9805C75.3984 85.1133 75.0898 85.3086 74.8398 85.5664C74.5977 85.8164 74.4102 86.1211 74.2773 86.4805C74.1445 86.8398 74.0664 87.2422 74.043 87.6875L73.3984 87.7344C73.3984 86.9375 73.4766 86.1992 73.6328 85.5195C73.7891 84.8398 74.0234 84.2422 74.3359 83.7266C74.6562 83.2109 75.0547 82.8086 75.5312 82.5195C76.0156 82.2305 76.5742 82.0859 77.207 82.0859C77.3789 82.0859 77.5625 82.1016 77.7578 82.1328C77.9609 82.1641 78.1133 82.1992 78.2148 82.2383ZM86.3828 82.3203V84.3828H79.2344V82.3203H86.3828ZM81.2969 79.2148H84.1211V91.4961C84.1211 91.8867 84.1758 92.1875 84.2852 92.3984C84.4023 92.6016 84.5625 92.7383 84.7656 92.8086C84.9688 92.8789 85.207 92.9141 85.4805 92.9141C85.6758 92.9141 85.8633 92.9023 86.043 92.8789C86.2227 92.8555 86.3672 92.832 86.4766 92.8086L86.4883 94.9648C86.2539 95.0352 85.9805 95.0977 85.668 95.1523C85.3633 95.207 85.0117 95.2344 84.6133 95.2344C83.9648 95.2344 83.3906 95.1211 82.8906 94.8945C82.3906 94.6602 82 94.2812 81.7188 93.7578C81.4375 93.2344 81.2969 92.5391 81.2969 91.6719V79.2148ZM95.4883 80.2109L90.3906 95H87.3086L93.7305 77.9375H95.6992L95.4883 80.2109ZM99.7539 95L94.6445 80.2109L94.4219 77.9375H96.4023L102.848 95H99.7539ZM99.5078 88.6719V91.0039H90.2266V88.6719H99.5078ZM112.598 82.3203H115.164V94.6484C115.164 95.7891 114.922 96.7578 114.438 97.5547C113.953 98.3516 113.277 98.957 112.41 99.3711C111.543 99.793 110.539 100.004 109.398 100.004C108.914 100.004 108.375 99.9336 107.781 99.793C107.195 99.6523 106.625 99.4258 106.07 99.1133C105.523 98.8086 105.066 98.4062 104.699 97.9062L106.023 96.2422C106.477 96.7812 106.977 97.1758 107.523 97.4258C108.07 97.6758 108.645 97.8008 109.246 97.8008C109.895 97.8008 110.445 97.6797 110.898 97.4375C111.359 97.2031 111.715 96.8555 111.965 96.3945C112.215 95.9336 112.34 95.3711 112.34 94.707V85.1914L112.598 82.3203ZM103.984 88.8008V88.5547C103.984 87.5938 104.102 86.7188 104.336 85.9297C104.57 85.1328 104.906 84.4492 105.344 83.8789C105.781 83.3008 106.312 82.8594 106.938 82.5547C107.562 82.2422 108.27 82.0859 109.059 82.0859C109.879 82.0859 110.578 82.2344 111.156 82.5312C111.742 82.8281 112.23 83.2539 112.621 83.8086C113.012 84.3555 113.316 85.0117 113.535 85.7773C113.762 86.5352 113.93 87.3789 114.039 88.3086V89.0938C113.938 90 113.766 90.8281 113.523 91.5781C113.281 92.3281 112.961 92.9766 112.562 93.5234C112.164 94.0703 111.672 94.4922 111.086 94.7891C110.508 95.0859 109.824 95.2344 109.035 95.2344C108.262 95.2344 107.562 95.0742 106.938 94.7539C106.32 94.4336 105.789 93.9844 105.344 93.4062C104.906 92.8281 104.57 92.1484 104.336 91.3672C104.102 90.5781 103.984 89.7227 103.984 88.8008ZM106.809 88.5547V88.8008C106.809 89.3789 106.863 89.918 106.973 90.418C107.09 90.918 107.266 91.3594 107.5 91.7422C107.742 92.1172 108.047 92.4141 108.414 92.6328C108.789 92.8438 109.23 92.9492 109.738 92.9492C110.402 92.9492 110.945 92.8086 111.367 92.5273C111.797 92.2461 112.125 91.8672 112.352 91.3906C112.586 90.9062 112.75 90.3672 112.844 89.7734V87.6523C112.797 87.1914 112.699 86.7617 112.551 86.3633C112.41 85.9648 112.219 85.6172 111.977 85.3203C111.734 85.0156 111.43 84.7812 111.062 84.6172C110.695 84.4453 110.262 84.3594 109.762 84.3594C109.254 84.3594 108.812 84.4688 108.438 84.6875C108.062 84.9062 107.754 85.207 107.512 85.5898C107.277 85.9727 107.102 86.418 106.984 86.9258C106.867 87.4336 106.809 87.9766 106.809 88.5547ZM123.684 95.2344C122.746 95.2344 121.898 95.082 121.141 94.7773C120.391 94.4648 119.75 94.0312 119.219 93.4766C118.695 92.9219 118.293 92.2695 118.012 91.5195C117.73 90.7695 117.59 89.9609 117.59 89.0938V88.625C117.59 87.6328 117.734 86.7344 118.023 85.9297C118.312 85.125 118.715 84.4375 119.23 83.8672C119.746 83.2891 120.355 82.8477 121.059 82.543C121.762 82.2383 122.523 82.0859 123.344 82.0859C124.25 82.0859 125.043 82.2383 125.723 82.543C126.402 82.8477 126.965 83.2773 127.41 83.832C127.863 84.3789 128.199 85.0312 128.418 85.7891C128.645 86.5469 128.758 87.3828 128.758 88.2969V89.5039H118.961V87.4766H125.969V87.2539C125.953 86.7461 125.852 86.2695 125.664 85.8242C125.484 85.3789 125.207 85.0195 124.832 84.7461C124.457 84.4727 123.957 84.3359 123.332 84.3359C122.863 84.3359 122.445 84.4375 122.078 84.6406C121.719 84.8359 121.418 85.1211 121.176 85.4961C120.934 85.8711 120.746 86.3242 120.613 86.8555C120.488 87.3789 120.426 87.9688 120.426 88.625V89.0938C120.426 89.6484 120.5 90.1641 120.648 90.6406C120.805 91.1094 121.031 91.5195 121.328 91.8711C121.625 92.2227 121.984 92.5 122.406 92.7031C122.828 92.8984 123.309 92.9961 123.848 92.9961C124.527 92.9961 125.133 92.8594 125.664 92.5859C126.195 92.3125 126.656 91.9258 127.047 91.4258L128.535 92.8672C128.262 93.2656 127.906 93.6484 127.469 94.0156C127.031 94.375 126.496 94.668 125.863 94.8945C125.238 95.1211 124.512 95.2344 123.684 95.2344ZM133.762 85.0273V95H130.938V82.3203H133.598L133.762 85.0273ZM133.258 88.1914L132.344 88.1797C132.352 87.2812 132.477 86.457 132.719 85.707C132.969 84.957 133.312 84.3125 133.75 83.7734C134.195 83.2344 134.727 82.8203 135.344 82.5312C135.961 82.2344 136.648 82.0859 137.406 82.0859C138.016 82.0859 138.566 82.1719 139.059 82.3438C139.559 82.5078 139.984 82.7773 140.336 83.1523C140.695 83.5273 140.969 84.0156 141.156 84.6172C141.344 85.2109 141.438 85.9414 141.438 86.8086V95H138.602V86.7969C138.602 86.1875 138.512 85.707 138.332 85.3555C138.16 84.9961 137.906 84.7422 137.57 84.5938C137.242 84.4375 136.832 84.3594 136.34 84.3594C135.855 84.3594 135.422 84.4609 135.039 84.6641C134.656 84.8672 134.332 85.1445 134.066 85.4961C133.809 85.8477 133.609 86.2539 133.469 86.7148C133.328 87.1758 133.258 87.668 133.258 88.1914ZM152.055 92.375V77H154.891V95H152.324L152.055 92.375ZM143.805 88.8008V88.5547C143.805 87.5938 143.918 86.7188 144.145 85.9297C144.371 85.1328 144.699 84.4492 145.129 83.8789C145.559 83.3008 146.082 82.8594 146.699 82.5547C147.316 82.2422 148.012 82.0859 148.785 82.0859C149.551 82.0859 150.223 82.2344 150.801 82.5312C151.379 82.8281 151.871 83.2539 152.277 83.8086C152.684 84.3555 153.008 85.0117 153.25 85.7773C153.492 86.5352 153.664 87.3789 153.766 88.3086V89.0938C153.664 90 153.492 90.8281 153.25 91.5781C153.008 92.3281 152.684 92.9766 152.277 93.5234C151.871 94.0703 151.375 94.4922 150.789 94.7891C150.211 95.0859 149.535 95.2344 148.762 95.2344C147.996 95.2344 147.305 95.0742 146.688 94.7539C146.078 94.4336 145.559 93.9844 145.129 93.4062C144.699 92.8281 144.371 92.1484 144.145 91.3672C143.918 90.5781 143.805 89.7227 143.805 88.8008ZM146.629 88.5547V88.8008C146.629 89.3789 146.68 89.918 146.781 90.418C146.891 90.918 147.059 91.3594 147.285 91.7422C147.512 92.1172 147.805 92.4141 148.164 92.6328C148.531 92.8438 148.969 92.9492 149.477 92.9492C150.117 92.9492 150.645 92.8086 151.059 92.5273C151.473 92.2461 151.797 91.8672 152.031 91.3906C152.273 90.9062 152.438 90.3672 152.523 89.7734V87.6523C152.477 87.1914 152.379 86.7617 152.23 86.3633C152.09 85.9648 151.898 85.6172 151.656 85.3203C151.414 85.0156 151.113 84.7812 150.754 84.6172C150.402 84.4453 149.984 84.3594 149.5 84.3594C148.984 84.3594 148.547 84.4688 148.188 84.6875C147.828 84.9062 147.531 85.207 147.297 85.5898C147.07 85.9727 146.902 86.418 146.793 86.9258C146.684 87.4336 146.629 87.9766 146.629 88.5547ZM164.992 92.457V86.4102C164.992 85.957 164.91 85.5664 164.746 85.2383C164.582 84.9102 164.332 84.6562 163.996 84.4766C163.668 84.2969 163.254 84.207 162.754 84.207C162.293 84.207 161.895 84.2852 161.559 84.4414C161.223 84.5977 160.961 84.8086 160.773 85.0742C160.586 85.3398 160.492 85.6406 160.492 85.9766H157.68C157.68 85.4766 157.801 84.9922 158.043 84.5234C158.285 84.0547 158.637 83.6367 159.098 83.2695C159.559 82.9023 160.109 82.6133 160.75 82.4023C161.391 82.1914 162.109 82.0859 162.906 82.0859C163.859 82.0859 164.703 82.2461 165.438 82.5664C166.18 82.8867 166.762 83.3711 167.184 84.0195C167.613 84.6602 167.828 85.4648 167.828 86.4336V92.0703C167.828 92.6484 167.867 93.168 167.945 93.6289C168.031 94.082 168.152 94.4766 168.309 94.8125V95H165.414C165.281 94.6953 165.176 94.3086 165.098 93.8398C165.027 93.3633 164.992 92.9023 164.992 92.457ZM165.402 87.2891L165.426 89.0352H163.398C162.875 89.0352 162.414 89.0859 162.016 89.1875C161.617 89.2812 161.285 89.4219 161.02 89.6094C160.754 89.7969 160.555 90.0234 160.422 90.2891C160.289 90.5547 160.223 90.8555 160.223 91.1914C160.223 91.5273 160.301 91.8359 160.457 92.1172C160.613 92.3906 160.84 92.6055 161.137 92.7617C161.441 92.918 161.809 92.9961 162.238 92.9961C162.816 92.9961 163.32 92.8789 163.75 92.6445C164.188 92.4023 164.531 92.1094 164.781 91.7656C165.031 91.4141 165.164 91.082 165.18 90.7695L166.094 92.0234C166 92.3438 165.84 92.6875 165.613 93.0547C165.387 93.4219 165.09 93.7734 164.723 94.1094C164.363 94.4375 163.93 94.707 163.422 94.918C162.922 95.1289 162.344 95.2344 161.688 95.2344C160.859 95.2344 160.121 95.0703 159.473 94.7422C158.824 94.4062 158.316 93.957 157.949 93.3945C157.582 92.8242 157.398 92.1797 157.398 91.4609C157.398 90.7891 157.523 90.1953 157.773 89.6797C158.031 89.1562 158.406 88.7188 158.898 88.3672C159.398 88.0156 160.008 87.75 160.727 87.5703C161.445 87.3828 162.266 87.2891 163.188 87.2891H165.402Z" fill="white"/>
<ellipse cx="153.5" cy="134.902" rx="22.5" ry="22.9018" fill="#532184"/>
<path fill-rule="evenodd" clip-rule="evenodd" d="M140.643 118.429H142.451V145.549H169.571V147.357H140.643V118.429ZM158.723 124.757C158.723 124.517 158.818 124.287 158.988 124.117C159.157 123.948 159.387 123.853 159.627 123.853H166.859C167.099 123.853 167.329 123.948 167.499 124.117C167.668 124.287 167.763 124.517 167.763 124.757V131.989C167.763 132.229 167.668 132.459 167.499 132.628C167.329 132.798 167.099 132.893 166.859 132.893C166.62 132.893 166.39 132.798 166.22 132.628C166.051 132.459 165.955 132.229 165.955 131.989V127.288L159.423 135.274C159.343 135.372 159.243 135.451 159.131 135.508C159.018 135.565 158.895 135.598 158.769 135.604C158.643 135.61 158.517 135.59 158.399 135.545C158.281 135.5 158.174 135.43 158.085 135.341L153.408 130.664L146.797 139.753C146.653 139.936 146.443 140.057 146.211 140.089C145.979 140.121 145.744 140.062 145.555 139.925C145.366 139.787 145.237 139.581 145.197 139.351C145.156 139.121 145.206 138.884 145.336 138.689L152.569 128.745C152.645 128.639 152.744 128.552 152.858 128.488C152.972 128.424 153.099 128.385 153.229 128.375C153.359 128.365 153.49 128.383 153.613 128.428C153.735 128.473 153.847 128.544 153.939 128.637L158.656 133.356L164.952 125.661H159.627C159.387 125.661 159.157 125.565 158.988 125.396C158.818 125.226 158.723 124.996 158.723 124.757Z" fill="#0E0024"/>
</svg>
