<svg width="16" height="16" viewBox="0 0 16 16" fill="none" xmlns="http://www.w3.org/2000/svg">
<path d="M0.992862 2.5098H4.33716V1.72549C4.33716 1.26786 4.52172 0.828977 4.85024 0.505384C5.17876 0.181792 5.62433 0 6.08893 0H9.91098C10.3756 0 10.8211 0.181792 11.1497 0.505384C11.4782 0.828977 11.6628 1.26786 11.6628 1.72549V2.5098H15.007C15.1338 2.5098 15.2553 2.55938 15.3449 2.64764C15.4345 2.73589 15.4848 2.85558 15.4848 2.98039C15.4848 3.1052 15.4345 3.2249 15.3449 3.31315C15.2553 3.4014 15.1338 3.45098 15.007 3.45098H14.2108V14.902C14.2108 15.1932 14.0933 15.4725 13.8843 15.6784C13.6752 15.8843 13.3917 16 13.096 16H2.90389C2.60823 16 2.32469 15.8843 2.11563 15.6784C1.90657 15.4725 1.78912 15.1932 1.78912 14.902V3.45098H0.992862C0.866153 3.45098 0.744633 3.4014 0.655037 3.31315C0.56544 3.2249 0.515106 3.1052 0.515106 2.98039C0.515106 2.85558 0.56544 2.73589 0.655037 2.64764C0.744633 2.55938 0.866153 2.5098 0.992862 2.5098ZM10.7072 1.72549C10.7072 1.51748 10.6233 1.31798 10.474 1.1709C10.3247 1.02381 10.1222 0.941177 9.91098 0.941177H6.08893C5.87775 0.941177 5.67521 1.02381 5.52589 1.1709C5.37656 1.31798 5.29267 1.51748 5.29267 1.72549V2.5098H10.7072V1.72549ZM2.74463 14.902C2.74463 14.9436 2.76141 14.9835 2.79128 15.0129C2.82114 15.0423 2.86165 15.0588 2.90389 15.0588H13.096C13.1383 15.0588 13.1788 15.0423 13.2086 15.0129C13.2385 14.9835 13.2553 14.9436 13.2553 14.902V3.45098H2.74463V14.902ZM9.43322 6.7451V11.7647C9.43322 11.8895 9.48356 12.0092 9.57315 12.0975C9.66275 12.1857 9.78427 12.2353 9.91098 12.2353C10.0377 12.2353 10.1592 12.1857 10.2488 12.0975C10.3384 12.0092 10.3887 11.8895 10.3887 11.7647V6.7451C10.3887 6.62029 10.3384 6.50059 10.2488 6.41234C10.1592 6.32409 10.0377 6.27451 9.91098 6.27451C9.78427 6.27451 9.66275 6.32409 9.57315 6.41234C9.48356 6.50059 9.43322 6.62029 9.43322 6.7451ZM5.61117 6.7451V11.7647C5.61117 11.8895 5.66151 12.0092 5.7511 12.0975C5.8407 12.1857 5.96222 12.2353 6.08893 12.2353C6.21564 12.2353 6.33716 12.1857 6.42675 12.0975C6.51635 12.0092 6.56669 11.8895 6.56669 11.7647V6.7451C6.56669 6.62029 6.51635 6.50059 6.42675 6.41234C6.33716 6.32409 6.21564 6.27451 6.08893 6.27451C5.96222 6.27451 5.8407 6.32409 5.7511 6.41234C5.66151 6.50059 5.61117 6.62029 5.61117 6.7451Z" fill="#F60000"/>
</svg>
